<?xml version="1.0" encoding="UTF-8" standalone="no"?>
<svg width="50px" height="50px" viewBox="0 0 50 50" version="1.1" xmlns="http://www.w3.org/2000/svg" xmlns:xlink="http://www.w3.org/1999/xlink" xmlns:sketch="http://www.bohemiancoding.com/sketch/ns">
    <!-- Generator: Sketch 3.3.3 (12072) - http://www.bohemiancoding.com/sketch -->
    <title>Imported Layers</title>
    <desc>Created with Sketch.</desc>
    <defs></defs>
    <g id="Page-1" stroke="none" stroke-width="1" fill="none" fill-rule="evenodd" sketch:type="MSPage">
        <g id="sc-v1" sketch:type="MSArtboardGroup" transform="translate(-654.000000, -1688.000000)" stroke="#000000" stroke-width="2" stroke-linejoin="round">
            <g id="value-3-+-value-4" sketch:type="MSLayerGroup" transform="translate(285.000000, 1377.000000)">
                <g id="Imported-Layers" transform="translate(370.000000, 312.000000)" sketch:type="MSShapeGroup">
                    <path d="M20.875,43.7916667 L0.0416666667,43.7916667 L0.0416666667,0.0416666667 L22.9583333,0.0416666667 L33.375,10.4625 L33.375,18.7916667" id="Stroke-1"></path>
                    <path d="M22.9583333,0.0416666667 L22.9583333,10.4583333 L33.375,10.4583333" id="Stroke-2" stroke-linecap="round"></path>
                    <path d="M47.9583333,35.4583333 C47.9583333,42.3645833 42.3604167,47.9583333 35.4583333,47.9583333 C28.5541667,47.9583333 22.9583333,42.3645833 22.9583333,35.4583333 C22.9583333,28.55625 28.5541667,22.9583333 35.4583333,22.9583333 C42.3604167,22.9583333 47.9583333,28.55625 47.9583333,35.4583333 L47.9583333,35.4583333 Z" id="Stroke-3"></path>
                    <path d="M42.275,32.0520833 L34.3229167,40.76875 L28.6395833,35.0875" id="Stroke-4" stroke-linecap="round"></path>
                </g>
            </g>
        </g>
    </g>
</svg>